{
  "accessors": [
    {
      "bufferView": 1,
      "componentType": 5126,
      "count": 44178,
      "max": [
        -51.219501495361328,
        151.78199768066406,
        -40.904300689697266
      ],
      "min": [
        -121.53600311279297,
        47.870498657226562,
        -97.239402770996094
      ],
      "type": "VEC3"
    },
    {
      "bufferView": 1,
      "byteOffset": 530136,
      "componentType": 5126,
      "count": 44178,
      "max": [
        1,
        0.99999713897705078,
        1
      ],
      "min": [
        -1,
        -0.99999713897705078,
        -1
      ],
      "type": "VEC3"
    },
    {
      "bufferView": 0,
      "componentType": 5125,
      "count": 264342,
      "max": [
        44177
      ],
      "min": [
        0
      ],
      "type": "SCALAR"
    }
  ],
  "asset": {
    "extras": {
      "author": "mhight (https://sketchfab.com/mhight)",
      "license": "CC-BY-4.0 (http://creativecommons.org/licenses/by/4.0/)",
      "source": "https://sketchfab.com/3d-models/right-kidney-e237fcc0c8084851aaf5682553830311",
      "title": "RIGHT KIDNEY"
    },
    "generator": "Sketchfab-6.76.0",
    "version": "2.0"
  },
  "bufferViews": [
    {
      "buffer": 0,
      "byteLength": 1057368,
      "byteOffset": 0,
      "name": "floatBufferViews",
      "target": 34963
    },
    {
      "buffer": 0,
      "byteLength": 1060272,
      "byteOffset": 1057368,
      "byteStride": 12,
      "name": "floatBufferViews",
      "target": 34962
    }
  ],
  "buffers": [
    {
      "byteLength": 2117640,
      "uri": "scene.bin"
    }
  ],
  "materials": [
    {
      "doubleSided": true,
      "name": "mtl1",
      "pbrMetallicRoughness": {
        "baseColorFactor": [
          0.14107431122548625,
          0.0092173081088503962,
          0.031755491262887812,
          1
        ],
        "metallicFactor": 0.44073932926829268,
        "roughnessFactor": 0
      }
    }
  ],
  "meshes": [
    {
      "primitives": [
        {
          "attributes": {
            "NORMAL": 1,
            "POSITION": 0
          },
          "indices": 2,
          "material": 0,
          "mode": 4
        }
      ]
    }
  ],
  "nodes": [
    {
      "children": [
        1
      ],
      "name": "RootNode (gltf orientation matrix)",
      "rotation": [
        -0.70710678118654746,
        -0,
        -0,
        0.70710678118654757
      ]
    },
    {
      "children": [
        2
      ],
      "name": "RootNode (model correction matrix)"
    },
    {
      "children": [
        3
      ],
      "name": "Right Kidney.obj.cleaner.materialmerger.gles"
    },
    {
      "mesh": 0,
      "name": ""
    }
  ],
  "scene": 0,
  "scenes": [
    {
      "name": "OSG_Scene",
      "nodes": [
        0
      ]
    }
  ]
}

