{
  "accessors": [
    {
      "bufferView": 2,
      "componentType": 5126,
      "count": 236,
      "max": [
        1169.8233642578125,
        90.778701782226562,
        0
      ],
      "min": [
        -1169.823486328125,
        -90.778656005859375,
        -2895.4072265625
      ],
      "type": "VEC3"
    },
    {
      "bufferView": 2,
      "byteOffset": 2832,
      "componentType": 5126,
      "count": 236,
      "max": [
        1,
        1,
        0.91972345113754272
      ],
      "min": [
        -1,
        -1,
        -0.72464555501937866
      ],
      "type": "VEC3"
    },
    {
      "bufferView": 3,
      "componentType": 5126,
      "count": 236,
      "max": [
        0.99999916553497314,
        0.99919390678405762,
        0.72058224678039551,
        1
      ],
      "min": [
        -0.99999916553497314,
        -1,
        -0.99926865100860596,
        1
      ],
      "type": "VEC4"
    },
    {
      "bufferView": 1,
      "componentType": 5126,
      "count": 236,
      "max": [
        0.99696636199951172,
        0.92292726039886475
      ],
      "min": [
        0.003033557441085577,
        0.003033557441085577
      ],
      "type": "VEC2"
    },
    {
      "bufferView": 0,
      "componentType": 5125,
      "count": 666,
      "max": [
        235
      ],
      "min": [
        0
      ],
      "type": "SCALAR"
    },
    {
      "bufferView": 2,
      "byteOffset": 5664,
      "componentType": 5126,
      "count": 488,
      "max": [
        13.208537101745605,
        18.268186569213867,
        1.813227653503418
      ],
      "min": [
        -13.162350654602051,
        -22.966899871826172,
        -7.1063475608825684
      ],
      "type": "VEC3"
    },
    {
      "bufferView": 2,
      "byteOffset": 11520,
      "componentType": 5126,
      "count": 488,
      "max": [
        1,
        1,
        0.00032150396145880222
      ],
      "min": [
        -1,
        -1,
        -1
      ],
      "type": "VEC3"
    },
    {
      "bufferView": 3,
      "byteOffset": 3776,
      "componentType": 5126,
      "count": 488,
      "max": [
        1,
        1,
        1,
        1
      ],
      "min": [
        -1,
        -1,
        -1,
        1
      ],
      "type": "VEC4"
    },
    {
      "bufferView": 1,
      "byteOffset": 1888,
      "componentType": 5126,
      "count": 488,
      "max": [
        0.99343377351760864,
        0.99611508846282959
      ],
      "min": [
        0.0038849464617669582,
        0.0038849464617669582
      ],
      "type": "VEC2"
    },
    {
      "bufferView": 0,
      "byteOffset": 2664,
      "componentType": 5125,
      "count": 906,
      "max": [
        487
      ],
      "min": [
        0
      ],
      "type": "SCALAR"
    },
    {
      "bufferView": 4,
      "componentType": 5126,
      "count": 4,
      "max": [
        1
      ],
      "min": [
        0
      ],
      "type": "SCALAR"
    },
    {
      "bufferView": 5,
      "componentType": 5126,
      "count": 4,
      "max": [
        0.0026171519421041012,
        0.011166132055222988,
        0.0069097490049898624
      ],
      "min": [
        0.0026171519421041012,
        0.011166132055222988,
        0.0069097485393285751
      ],
      "type": "VEC3"
    },
    {
      "bufferView": 4,
      "byteOffset": 16,
      "componentType": 5126,
      "count": 26,
      "max": [
        1
      ],
      "min": [
        0
      ],
      "type": "SCALAR"
    },
    {
      "bufferView": 6,
      "componentType": 5126,
      "count": 26,
      "max": [
        0.49624067544937134,
        0,
        0,
        0.99986350536346436
      ],
      "min": [
        -0.46728721261024475,
        0,
        0,
        0.86818498373031616
      ],
      "type": "VEC4"
    }
  ],
  "animations": [
    {
      "channels": [
        {
          "sampler": 0,
          "target": {
            "node": 5,
            "path": "scale"
          }
        },
        {
          "sampler": 1,
          "target": {
            "node": 5,
            "path": "rotation"
          }
        }
      ],
      "name": "Lever|LeverAction",
      "samplers": [
        {
          "input": 10,
          "interpolation": "LINEAR",
          "output": 11
        },
        {
          "input": 12,
          "interpolation": "LINEAR",
          "output": 13
        }
      ]
    }
  ],
  "asset": {
    "extras": {
      "author": "Gunnar Correa (https://sketchfab.com/gunnarcorrea)",
      "license": "CC-BY-4.0 (http://creativecommons.org/licenses/by/4.0/)",
      "source": "https://sketchfab.com/3d-models/old-lever-f1075e12ba4a49368e0f29c62881ac73",
      "title": "Old lever"
    },
    "generator": "Sketchfab-4.78.0",
    "version": "2.0"
  },
  "bufferViews": [
    {
      "buffer": 0,
      "byteLength": 6288,
      "byteOffset": 0,
      "name": "floatBufferViews",
      "target": 34963
    },
    {
      "buffer": 0,
      "byteLength": 5792,
      "byteOffset": 6288,
      "byteStride": 8,
      "name": "floatBufferViews",
      "target": 34962
    },
    {
      "buffer": 0,
      "byteLength": 17376,
      "byteOffset": 12080,
      "byteStride": 12,
      "name": "floatBufferViews",
      "target": 34962
    },
    {
      "buffer": 0,
      "byteLength": 11584,
      "byteOffset": 29456,
      "byteStride": 16,
      "name": "floatBufferViews",
      "target": 34962
    },
    {
      "buffer": 0,
      "byteLength": 120,
      "byteOffset": 41040,
      "name": "floatBufferViews"
    },
    {
      "buffer": 0,
      "byteLength": 48,
      "byteOffset": 41160,
      "byteStride": 12,
      "name": "floatBufferViews"
    },
    {
      "buffer": 0,
      "byteLength": 416,
      "byteOffset": 41208,
      "byteStride": 16,
      "name": "floatBufferViews"
    }
  ],
  "buffers": [
    {
      "byteLength": 41624,
      "uri": "scene.bin"
    }
  ],
  "images": [
    {
      "uri": "textures/Panel_normal.png"
    },
    {
      "uri": "textures/Panel_baseColor.png"
    },
    {
      "uri": "textures/Panel_metallicRoughness.png"
    },
    {
      "uri": "textures/Lever_normal.png"
    },
    {
      "uri": "textures/Lever_baseColor.png"
    },
    {
      "uri": "textures/Lever_metallicRoughness.png"
    }
  ],
  "materials": [
    {
      "doubleSided": true,
      "emissiveFactor": [
        0,
        0,
        0
      ],
      "name": "Lever",
      "normalTexture": {
        "index": 3,
        "scale": 1,
        "texCoord": 0
      },
      "pbrMetallicRoughness": {
        "baseColorFactor": [
          1,
          1,
          1,
          1
        ],
        "baseColorTexture": {
          "index": 4,
          "texCoord": 0
        },
        "metallicFactor": 1,
        "metallicRoughnessTexture": {
          "index": 5,
          "texCoord": 0
        },
        "roughnessFactor": 1
      }
    },
    {
      "doubleSided": true,
      "emissiveFactor": [
        0,
        0,
        0
      ],
      "name": "Panel",
      "normalTexture": {
        "index": 0,
        "scale": 1,
        "texCoord": 0
      },
      "pbrMetallicRoughness": {
        "baseColorFactor": [
          1,
          1,
          1,
          1
        ],
        "baseColorTexture": {
          "index": 1,
          "texCoord": 0
        },
        "metallicFactor": 1,
        "metallicRoughnessTexture": {
          "index": 2,
          "texCoord": 0
        },
        "roughnessFactor": 1
      }
    }
  ],
  "meshes": [
    {
      "name": "Lever_Lever_0",
      "primitives": [
        {
          "attributes": {
            "NORMAL": 1,
            "POSITION": 0,
            "TANGENT": 2,
            "TEXCOORD_0": 3
          },
          "indices": 4,
          "material": 0,
          "mode": 4
        }
      ]
    },
    {
      "name": "Panel_Panel_0",
      "primitives": [
        {
          "attributes": {
            "NORMAL": 6,
            "POSITION": 5,
            "TANGENT": 7,
            "TEXCOORD_0": 8
          },
          "indices": 9,
          "material": 1,
          "mode": 4
        }
      ]
    }
  ],
  "nodes": [
    {
      "children": [
        1
      ],
      "name": "RootNode (gltf orientation matrix)",
      "rotation": [
        -0.70710678118654746,
        -0,
        -0,
        0.70710678118654757
      ]
    },
    {
      "children": [
        2
      ],
      "name": "RootNode (model correction matrix)"
    },
    {
      "children": [
        3
      ],
      "matrix": [
        1,
        0,
        0,
        0,
        0,
        0,
        1,
        0,
        0,
        -1,
        0,
        0,
        0,
        0,
        0,
        1
      ],
      "name": "0c2d42745fba4ffd8173d9494c92f72f.fbx"
    },
    {
      "children": [
        4
      ],
      "name": ""
    },
    {
      "children": [
        5,
        7
      ],
      "name": "RootNode"
    },
    {
      "children": [
        6
      ],
      "name": "Lever",
      "rotation": [
        0.48276415467262268,
        0,
        0,
        0.87575042247772217
      ],
      "scale": [
        0.0026171519421041012,
        0.011166132055222988,
        0.0069097485393285751
      ],
      "translation": [
        -10.369812965393066,
        -0.80741226673126221,
        -0.4247613251209259
      ]
    },
    {
      "mesh": 0,
      "name": "Lever_Lever_0"
    },
    {
      "children": [
        8
      ],
      "name": "Panel",
      "translation": [
        -10.023092269897461,
        5.0434341430664062,
        3.5233199596405029
      ]
    },
    {
      "mesh": 1,
      "name": "Panel_Panel_0"
    }
  ],
  "samplers": [
    {
      "magFilter": 9729,
      "minFilter": 9987,
      "wrapS": 10497,
      "wrapT": 10497
    }
  ],
  "scene": 0,
  "scenes": [
    {
      "name": "OSG_Scene",
      "nodes": [
        0
      ]
    }
  ],
  "textures": [
    {
      "sampler": 0,
      "source": 0
    },
    {
      "sampler": 0,
      "source": 1
    },
    {
      "sampler": 0,
      "source": 2
    },
    {
      "sampler": 0,
      "source": 3
    },
    {
      "sampler": 0,
      "source": 4
    },
    {
      "sampler": 0,
      "source": 5
    }
  ]
}

