{
  "accessors": [
    {
      "bufferView": 2,
      "componentType": 5126,
      "count": 35420,
      "max": [
        36.267696380615234,
        48.092258453369141,
        50.888442993164062
      ],
      "min": [
        -42.965732574462891,
        -24.951065063476562,
        -79.479751586914062
      ],
      "type": "VEC3"
    },
    {
      "bufferView": 2,
      "byteOffset": 425040,
      "componentType": 5126,
      "count": 35420,
      "max": [
        0.99999094009399414,
        0.9999849796295166,
        0.9999772310256958
      ],
      "min": [
        -0.99998754262924194,
        -0.99991446733474731,
        -0.99999165534973145
      ],
      "type": "VEC3"
    },
    {
      "bufferView": 3,
      "componentType": 5126,
      "count": 35420,
      "max": [
        0.99999368190765381,
        0.99992537498474121,
        0.9999992847442627,
        1
      ],
      "min": [
        -0.99999570846557617,
        -0.9999229907989502,
        -0.99990189075469971,
        -1
      ],
      "type": "VEC4"
    },
    {
      "bufferView": 1,
      "componentType": 5126,
      "count": 35420,
      "max": [
        0.97775000333786011,
        0.99314999580383301
      ],
      "min": [
        0.004999999888241291,
        0.004999995231628418
      ],
      "type": "VEC2"
    },
    {
      "bufferView": 0,
      "componentType": 5125,
      "count": 141327,
      "max": [
        35419
      ],
      "min": [
        0
      ],
      "type": "SCALAR"
    },
    {
      "bufferView": 2,
      "byteOffset": 850080,
      "componentType": 5126,
      "count": 6081,
      "max": [
        37.138320922851562,
        50.837909698486328,
        45.093334197998047
      ],
      "min": [
        -41.385471343994141,
        -28.426801681518555,
        -79.202072143554688
      ],
      "type": "VEC3"
    },
    {
      "bufferView": 2,
      "byteOffset": 923052,
      "componentType": 5126,
      "count": 6081,
      "max": [
        0.99962800741195679,
        0.99907636642456055,
        0.99957954883575439
      ],
      "min": [
        -0.99992579221725464,
        -0.99887752532958984,
        -0.99919015169143677
      ],
      "type": "VEC3"
    },
    {
      "bufferView": 3,
      "byteOffset": 566720,
      "componentType": 5126,
      "count": 6081,
      "max": [
        0.9999966025352478,
        0.99989169836044312,
        0.99998128414154053,
        1
      ],
      "min": [
        -0.99994492530822754,
        -0.99940246343612671,
        -0.99958044290542603,
        -1
      ],
      "type": "VEC4"
    },
    {
      "bufferView": 1,
      "byteOffset": 283360,
      "componentType": 5126,
      "count": 6081,
      "max": [
        0.99500000476837158,
        0.98984998464584351
      ],
      "min": [
        0.004999999888241291,
        0.004999995231628418
      ],
      "type": "VEC2"
    },
    {
      "bufferView": 0,
      "byteOffset": 565308,
      "componentType": 5125,
      "count": 16392,
      "max": [
        6080
      ],
      "min": [
        0
      ],
      "type": "SCALAR"
    },
    {
      "bufferView": 2,
      "byteOffset": 996024,
      "componentType": 5126,
      "count": 271,
      "max": [
        7.2387499809265137,
        -9.4359207153320312,
        41.9412841796875
      ],
      "min": [
        -2.403050422668457,
        -15.937953948974609,
        37.002784729003906
      ],
      "type": "VEC3"
    },
    {
      "bufferView": 2,
      "byteOffset": 999276,
      "componentType": 5126,
      "count": 271,
      "max": [
        0.99935734272003174,
        0.99669653177261353,
        0.99296945333480835
      ],
      "min": [
        -0.99637436866760254,
        -0.99804472923278809,
        -0.989693284034729
      ],
      "type": "VEC3"
    },
    {
      "bufferView": 3,
      "byteOffset": 664016,
      "componentType": 5126,
      "count": 271,
      "max": [
        0.99723398685455322,
        0.96821808815002441,
        0.99802833795547485,
        1
      ],
      "min": [
        -0.99630886316299438,
        -0.99710893630981445,
        -0.99951553344726562,
        -1
      ],
      "type": "VEC4"
    },
    {
      "bufferView": 1,
      "byteOffset": 332008,
      "componentType": 5126,
      "count": 271,
      "max": [
        0.97724997997283936,
        0.97821998596191406
      ],
      "min": [
        0.041529998183250427,
        0.004999995231628418
      ],
      "type": "VEC2"
    },
    {
      "bufferView": 0,
      "byteOffset": 630876,
      "componentType": 5125,
      "count": 960,
      "max": [
        270
      ],
      "min": [
        0
      ],
      "type": "SCALAR"
    },
    {
      "bufferView": 2,
      "byteOffset": 1002528,
      "componentType": 5126,
      "count": 2124,
      "max": [
        7.5331878662109375,
        -6.8298306465148926,
        42.784526824951172
      ],
      "min": [
        -2.421635627746582,
        -15.99057674407959,
        24.565406799316406
      ],
      "type": "VEC3"
    },
    {
      "bufferView": 2,
      "byteOffset": 1028016,
      "componentType": 5126,
      "count": 2124,
      "max": [
        0.99785196781158447,
        0.99978965520858765,
        0.99962925910949707
      ],
      "min": [
        -0.99663478136062622,
        -0.9963306188583374,
        -0.99923157691955566
      ],
      "type": "VEC3"
    },
    {
      "bufferView": 3,
      "byteOffset": 668352,
      "componentType": 5126,
      "count": 2124,
      "max": [
        0.99852663278579712,
        0.99734580516815186,
        0.99983692169189453,
        1
      ],
      "min": [
        -0.99899899959564209,
        -0.99421268701553345,
        -0.99822616577148438,
        -1
      ],
      "type": "VEC4"
    },
    {
      "bufferView": 1,
      "byteOffset": 334176,
      "componentType": 5126,
      "count": 2124,
      "max": [
        0.96433001756668091,
        0.97373002767562866
      ],
      "min": [
        0.004999999888241291,
        0.004999995231628418
      ],
      "type": "VEC2"
    },
    {
      "bufferView": 0,
      "byteOffset": 634716,
      "componentType": 5125,
      "count": 4476,
      "max": [
        2123
      ],
      "min": [
        0
      ],
      "type": "SCALAR"
    }
  ],
  "asset": {
    "extras": {
      "author": "nataliedesign (https://sketchfab.com/nataliedesign)",
      "license": "CC-BY-4.0 (http://creativecommons.org/licenses/by/4.0/)",
      "source": "https://sketchfab.com/3d-models/three-eyed-demon-21023121a3af4da48eb9c466c5ffe2ea",
      "title": "Three Eyed Demon"
    },
    "generator": "Sketchfab-6.14.0",
    "version": "2.0"
  },
  "bufferViews": [
    {
      "buffer": 0,
      "byteLength": 652620,
      "byteOffset": 0,
      "name": "floatBufferViews",
      "target": 34963
    },
    {
      "buffer": 0,
      "byteLength": 351168,
      "byteOffset": 652620,
      "byteStride": 8,
      "name": "floatBufferViews",
      "target": 34962
    },
    {
      "buffer": 0,
      "byteLength": 1053504,
      "byteOffset": 1003788,
      "byteStride": 12,
      "name": "floatBufferViews",
      "target": 34962
    },
    {
      "buffer": 0,
      "byteLength": 702336,
      "byteOffset": 2057292,
      "byteStride": 16,
      "name": "floatBufferViews",
      "target": 34962
    }
  ],
  "buffers": [
    {
      "byteLength": 2759628,
      "uri": "scene.bin"
    }
  ],
  "extensionsRequired": [
    "KHR_materials_pbrSpecularGlossiness"
  ],
  "extensionsUsed": [
    "KHR_materials_pbrSpecularGlossiness"
  ],
  "images": [
    {
      "uri": "textures/material_diffuse.jpeg"
    },
    {
      "uri": "textures/material_specularGlossiness.png"
    },
    {
      "uri": "textures/material_normal.png"
    },
    {
      "uri": "textures/Mat.2_normal.png"
    }
  ],
  "materials": [
    {
      "doubleSided": true,
      "extensions": {
        "KHR_materials_pbrSpecularGlossiness": {
          "diffuseFactor": [
            1,
            1,
            1,
            1
          ],
          "diffuseTexture": {
            "index": 0,
            "texCoord": 0
          },
          "glossinessFactor": 0.62366615853658536,
          "specularFactor": [
            1,
            1,
            1
          ],
          "specularGlossinessTexture": {
            "index": 1,
            "texCoord": 0
          }
        }
      },
      "name": "material",
      "normalTexture": {
        "index": 2,
        "scale": 1,
        "texCoord": 0
      }
    },
    {
      "doubleSided": true,
      "emissiveFactor": [
        0.34865767404717629,
        1,
        1
      ],
      "extensions": {
        "KHR_materials_pbrSpecularGlossiness": {
          "diffuseFactor": [
            1,
            1,
            1,
            1
          ],
          "diffuseTexture": {
            "index": 0,
            "texCoord": 0
          },
          "glossinessFactor": 0.40000000000000002,
          "specularFactor": [
            0,
            0,
            0
          ]
        }
      },
      "name": "Mat.1"
    },
    {
      "doubleSided": true,
      "extensions": {
        "KHR_materials_pbrSpecularGlossiness": {
          "diffuseFactor": [
            1,
            1,
            1,
            1
          ],
          "diffuseTexture": {
            "index": 0,
            "texCoord": 0
          },
          "glossinessFactor": 1,
          "specularFactor": [
            1,
            1,
            1
          ],
          "specularGlossinessTexture": {
            "index": 1,
            "texCoord": 0
          }
        }
      },
      "name": "Mat.2",
      "normalTexture": {
        "index": 3,
        "scale": 1,
        "texCoord": 0
      }
    },
    {
      "doubleSided": true,
      "extensions": {
        "KHR_materials_pbrSpecularGlossiness": {
          "diffuseFactor": [
            1,
            1,
            1,
            1
          ],
          "diffuseTexture": {
            "index": 0,
            "texCoord": 0
          },
          "glossinessFactor": 0.16291920731707321,
          "specularFactor": [
            0,
            0,
            0
          ]
        }
      },
      "name": "nails_teeth",
      "normalTexture": {
        "index": 3,
        "scale": 1,
        "texCoord": 0
      }
    }
  ],
  "meshes": [
    {
      "primitives": [
        {
          "attributes": {
            "NORMAL": 1,
            "POSITION": 0,
            "TANGENT": 2,
            "TEXCOORD_0": 3
          },
          "indices": 4,
          "material": 0,
          "mode": 4
        }
      ]
    },
    {
      "primitives": [
        {
          "attributes": {
            "NORMAL": 6,
            "POSITION": 5,
            "TANGENT": 7,
            "TEXCOORD_0": 8
          },
          "indices": 9,
          "material": 3,
          "mode": 4
        }
      ]
    },
    {
      "primitives": [
        {
          "attributes": {
            "NORMAL": 11,
            "POSITION": 10,
            "TANGENT": 12,
            "TEXCOORD_0": 13
          },
          "indices": 14,
          "material": 1,
          "mode": 4
        }
      ]
    },
    {
      "primitives": [
        {
          "attributes": {
            "NORMAL": 16,
            "POSITION": 15,
            "TANGENT": 17,
            "TEXCOORD_0": 18
          },
          "indices": 19,
          "material": 2,
          "mode": 4
        }
      ]
    }
  ],
  "nodes": [
    {
      "children": [
        1
      ],
      "name": "RootNode (gltf orientation matrix)",
      "rotation": [
        -0.70710678118654746,
        -0,
        -0,
        0.70710678118654757
      ]
    },
    {
      "children": [
        2
      ],
      "name": "RootNode (model correction matrix)"
    },
    {
      "children": [
        3,
        4,
        5,
        6
      ],
      "name": "Third_Eyexxx.OBJ.cleaner.materialmerger.gles"
    },
    {
      "mesh": 0,
      "name": ""
    },
    {
      "mesh": 1,
      "name": ""
    },
    {
      "mesh": 2,
      "name": ""
    },
    {
      "mesh": 3,
      "name": ""
    }
  ],
  "samplers": [
    {
      "magFilter": 9729,
      "minFilter": 9987,
      "wrapS": 10497,
      "wrapT": 10497
    }
  ],
  "scene": 0,
  "scenes": [
    {
      "name": "OSG_Scene",
      "nodes": [
        0
      ]
    }
  ],
  "textures": [
    {
      "sampler": 0,
      "source": 0
    },
    {
      "sampler": 0,
      "source": 1
    },
    {
      "sampler": 0,
      "source": 2
    },
    {
      "sampler": 0,
      "source": 3
    }
  ]
}

