{
  "accessors": [
    {
      "bufferView": 2,
      "componentType": 5126,
      "count": 216,
      "max": [
        1.0188000202178955,
        1.0579299926757812,
        63.928199768066406
      ],
      "min": [
        -1.0474699735641479,
        -1.0579299926757812,
        -9.1603403091430664
      ],
      "type": "VEC3"
    },
    {
      "bufferView": 2,
      "byteOffset": 2592,
      "componentType": 5126,
      "count": 216,
      "max": [
        1,
        0.99999868869781494,
        1
      ],
      "min": [
        -1,
        -0.9999992847442627,
        -1
      ],
      "type": "VEC3"
    },
    {
      "bufferView": 3,
      "componentType": 5126,
      "count": 216,
      "max": [
        1,
        0.99574166536331177,
        0.99996477365493774,
        1
      ],
      "min": [
        -0.9940449595451355,
        -1,
        -0.99999797344207764,
        1
      ],
      "type": "VEC4"
    },
    {
      "bufferView": 1,
      "componentType": 5126,
      "count": 216,
      "max": [
        0.95058000087738037,
        0.99829000234603882
      ],
      "min": [
        0.010160000063478947,
        9.0000001364387572e-05
      ],
      "type": "VEC2"
    },
    {
      "bufferView": 0,
      "componentType": 5125,
      "count": 324,
      "max": [
        215
      ],
      "min": [
        0
      ],
      "type": "SCALAR"
    }
  ],
  "asset": {
    "extras": {
      "author": "adam127 (https://sketchfab.com/adam127)",
      "license": "CC-BY-4.0 (http://creativecommons.org/licenses/by/4.0/)",
      "source": "https://sketchfab.com/3d-models/wooden-shelter-38d18002b82345978aa440bf6901ab21",
      "title": "Wooden Shelter"
    },
    "generator": "Sketchfab-6.29.0",
    "version": "2.0"
  },
  "bufferViews": [
    {
      "buffer": 0,
      "byteLength": 1296,
      "byteOffset": 0,
      "name": "floatBufferViews",
      "target": 34963
    },
    {
      "buffer": 0,
      "byteLength": 1728,
      "byteOffset": 1296,
      "byteStride": 8,
      "name": "floatBufferViews",
      "target": 34962
    },
    {
      "buffer": 0,
      "byteLength": 5184,
      "byteOffset": 3024,
      "byteStride": 12,
      "name": "floatBufferViews",
      "target": 34962
    },
    {
      "buffer": 0,
      "byteLength": 3456,
      "byteOffset": 8208,
      "byteStride": 16,
      "name": "floatBufferViews",
      "target": 34962
    }
  ],
  "buffers": [
    {
      "byteLength": 11664,
      "uri": "scene.bin"
    }
  ],
  "images": [
    {
      "uri": "textures/wooden_shelter_baseColor.png"
    },
    {
      "uri": "textures/wooden_shelter_normal.png"
    }
  ],
  "materials": [
    {
      "doubleSided": true,
      "emissiveFactor": [
        0,
        0,
        0
      ],
      "name": "wooden_shelter",
      "normalTexture": {
        "index": 1,
        "scale": 1,
        "texCoord": 0
      },
      "pbrMetallicRoughness": {
        "baseColorFactor": [
          1,
          1,
          1,
          1
        ],
        "baseColorTexture": {
          "index": 0,
          "texCoord": 0
        },
        "metallicFactor": 0,
        "roughnessFactor": 0.59999999999999998
      }
    }
  ],
  "meshes": [
    {
      "name": "wooden shelter_0",
      "primitives": [
        {
          "attributes": {
            "NORMAL": 1,
            "POSITION": 0,
            "TANGENT": 2,
            "TEXCOORD_0": 3
          },
          "indices": 4,
          "material": 0,
          "mode": 4
        }
      ]
    }
  ],
  "nodes": [
    {
      "children": [
        1
      ],
      "name": "RootNode (gltf orientation matrix)",
      "rotation": [
        -0.70710678118654746,
        -0,
        -0,
        0.70710678118654757
      ]
    },
    {
      "children": [
        2
      ],
      "name": "RootNode (model correction matrix)"
    },
    {
      "children": [
        3,
        5
      ],
      "name": "Root"
    },
    {
      "children": [
        4
      ],
      "matrix": [
        1,
        0,
        0,
        0,
        0,
        1.2,
        0,
        0,
        0,
        0,
        0.024900000000000005,
        0,
        0,
        0,
        0,
        1
      ],
      "name": "wooden shelter"
    },
    {
      "mesh": 0,
      "name": "wooden shelter_0"
    },
    {
      "children": [
        6
      ],
      "matrix": [
        0.84510000000000007,
        0,
        -0.5346200000000001,
        0,
        0.16667000000000001,
        0.95016,
        0.26346000000000003,
        0,
        0.50797000000000003,
        -0.31175000000000003,
        0.80298000000000003,
        0,
        5.8649399999999989,
        0,
        4.360129999999999,
        1
      ],
      "name": "Sun"
    },
    {
      "name": "Sun"
    }
  ],
  "samplers": [
    {
      "magFilter": 9729,
      "minFilter": 9987,
      "wrapS": 10497,
      "wrapT": 10497
    }
  ],
  "scene": 0,
  "scenes": [
    {
      "name": "OSG_Scene",
      "nodes": [
        0
      ]
    }
  ],
  "textures": [
    {
      "sampler": 0,
      "source": 0
    },
    {
      "sampler": 0,
      "source": 1
    }
  ]
}

