{"asset":{"version":"2.0","generator":"THREE.GLTFExporter"},"scenes":[{"nodes":[0],"name":"AuxScene"}],"scene":0,"nodes":[{"mesh":0}],"bufferViews":[{"buffer":0,"byteOffset":0,"byteLength":47736,"target":34962,"byteStride":12},{"buffer":0,"byteOffset":47736,"byteLength":47736,"target":34962,"byteStride":12}],"buffers":[{"byteLength":95472,"uri":"data:application/octet-stream;base64,"}],"accessors":[{"bufferView":0,"componentType":5126,"count":3978,"max":[49.70000457763672,3.001492977142334,49.713279724121094],"min":[-49.70000076293945,0.0014929999597370625,-49.78672790527344],"type":"VEC3"},{"bufferView":1,"componentType":5126,"count":3978,"max":[0.14063312113285065,1,0.03098670020699501],"min":[-0.03351244330406189,0.9863722920417786,-0.16439729928970337],"type":"VEC3"}],"materials":[{"pbrMetallicRoughness":{"baseColorFactor":[0.5019607843137255,0.5019607843137255,0.5019607843137255,1],"metallicFactor":0,"roughnessFactor":1}}],"meshes":[{"primitives":[{"mode":4,"attributes":{"POSITION":0,"NORMAL":1},"material":0}]}]}