{"asset":{"version":"2.0","generator":"THREE.GLTFExporter"},"scenes":[{"nodes":[0],"name":"AuxScene"}],"scene":0,"nodes":[{"mesh":0}],"bufferViews":[{"buffer":0,"byteOffset":0,"byteLength":20772,"target":34962,"byteStride":12},{"buffer":0,"byteOffset":20772,"byteLength":20772,"target":34962,"byteStride":12}],"buffers":[{"byteLength":41544,"uri":"data:application/octet-stream;base64,"}],"accessors":[{"bufferView":0,"componentType":5126,"count":1731,"max":[74.40000915527344,3.0398499965667725,74.40000915527344],"min":[-74.4000015258789,0.03985000029206276,-74.4000015258789],"type":"VEC3"},{"bufferView":1,"componentType":5126,"count":1731,"max":[0.06897236406803131,1,0.05353783071041107],"min":[-0.02819891832768917,0.9755497574806213,-0.21678827702999115],"type":"VEC3"}],"materials":[{"pbrMetallicRoughness":{"baseColorFactor":[0.5019607843137255,0.5019607843137255,0.5019607843137255,1],"metallicFactor":0,"roughnessFactor":1}}],"meshes":[{"primitives":[{"mode":4,"attributes":{"POSITION":0,"NORMAL":1},"material":0}]}]}