{"asset":{"version":"2.0","generator":"THREE.GLTFExporter"},"scenes":[{"nodes":[0],"name":"AuxScene"}],"scene":0,"nodes":[{"mesh":0}],"bufferViews":[{"buffer":0,"byteOffset":0,"byteLength":3960,"target":34962,"byteStride":12},{"buffer":0,"byteOffset":3960,"byteLength":3960,"target":34962,"byteStride":12}],"buffers":[{"byteLength":7920,"uri":"data:application/octet-stream;base64,"}],"accessors":[{"bufferView":0,"componentType":5126,"count":330,"max":[24.500003814697266,4.103638172149658,20.60000228881836],"min":[-24.399999618530273,0.10363800078630447,-30.399999618530273],"type":"VEC3"},{"bufferView":1,"componentType":5126,"count":330,"max":[0.40613970160484314,1,0.501264214515686],"min":[-0.19009029865264893,0.8544266223907471,-0.1292264312505722],"type":"VEC3"}],"materials":[{"pbrMetallicRoughness":{"baseColorFactor":[0.5019607843137255,0.5019607843137255,0.5019607843137255,1],"metallicFactor":0,"roughnessFactor":1}}],"meshes":[{"primitives":[{"mode":4,"attributes":{"POSITION":0,"NORMAL":1},"material":0}]}]}