{"asset":{"version":"2.0","generator":"THREE.GLTFExporter"},"scenes":[{"nodes":[0],"name":"AuxScene"}],"scene":0,"nodes":[{"mesh":0}],"bufferViews":[{"buffer":0,"byteOffset":0,"byteLength":21096,"target":34962,"byteStride":12},{"buffer":0,"byteOffset":21096,"byteLength":21096,"target":34962,"byteStride":12}],"buffers":[{"byteLength":42192,"uri":"data:application/octet-stream;base64,"}],"accessors":[{"bufferView":0,"componentType":5126,"count":1758,"max":[74.40000915527344,3.0498499870300293,74.40000915527344],"min":[-74.4000015258789,0.04984999820590019,-74.4000015258789],"type":"VEC3"},{"bufferView":1,"componentType":5126,"count":1758,"max":[0.05664076283574104,1,0.05353783071041107],"min":[-0.037983257323503494,0.9755497574806213,-0.21678827702999115],"type":"VEC3"}],"materials":[{"pbrMetallicRoughness":{"baseColorFactor":[0.5019607843137255,0.5019607843137255,0.5019607843137255,1],"metallicFactor":0,"roughnessFactor":1}}],"meshes":[{"primitives":[{"mode":4,"attributes":{"POSITION":0,"NORMAL":1},"material":0}]}]}