{"asset":{"version":"2.0","generator":"THREE.GLTFExporter"},"scenes":[{"nodes":[0],"name":"AuxScene"}],"scene":0,"nodes":[{"mesh":0}],"bufferViews":[{"buffer":0,"byteOffset":0,"byteLength":98316,"target":34962,"byteStride":12},{"buffer":0,"byteOffset":98316,"byteLength":98316,"target":34962,"byteStride":12}],"buffers":[{"byteLength":196632,"uri":"data:application/octet-stream;base64,"}],"accessors":[{"bufferView":0,"componentType":5126,"count":8193,"max":[100.7119140625,22.395973205566406,100.7119140625],"min":[-100.78809356689453,0.09596999734640121,-100.78809356689453],"type":"VEC3"},{"bufferView":1,"componentType":5126,"count":8193,"max":[0.9849169850349426,1,0.99944669008255],"min":[-0.9978436231613159,0.0315544456243515,-0.99637770652771],"type":"VEC3"}],"materials":[{"pbrMetallicRoughness":{"baseColorFactor":[0.5019607843137255,0.5019607843137255,0.5019607843137255,1],"metallicFactor":0,"roughnessFactor":1}}],"meshes":[{"primitives":[{"mode":4,"attributes":{"POSITION":0,"NORMAL":1},"material":0}]}]}
