{"asset":{"version":"2.0","generator":"THREE.GLTFExporter"},"scenes":[{"nodes":[0],"name":"AuxScene"}],"scene":0,"nodes":[{"mesh":0}],"bufferViews":[{"buffer":0,"byteOffset":0,"byteLength":5184,"target":34962,"byteStride":12},{"buffer":0,"byteOffset":5184,"byteLength":5184,"target":34962,"byteStride":12}],"buffers":[{"byteLength":10368,"uri":"data:application/octet-stream;base64,"}],"accessors":[{"bufferView":0,"componentType":5126,"count":432,"max":[24.500003814697266,4.127112865447998,20.699066162109375],"min":[-24.399999618530273,0.1271129995584488,-30.600936889648438],"type":"VEC3"},{"bufferView":1,"componentType":5126,"count":432,"max":[0.310014545917511,1,0.5546982884407043],"min":[-0.894430935382843,0.26831451058387756,-0.6043097972869873],"type":"VEC3"}],"materials":[{"pbrMetallicRoughness":{"baseColorFactor":[0.5019607843137255,0.5019607843137255,0.5019607843137255,1],"metallicFactor":0,"roughnessFactor":1}}],"meshes":[{"primitives":[{"mode":4,"attributes":{"POSITION":0,"NORMAL":1},"material":0}]}]}