{"asset":{"version":"2.0","generator":"THREE.GLTFExporter"},"scenes":[{"nodes":[0],"name":"AuxScene"}],"scene":0,"nodes":[{"mesh":0}],"bufferViews":[{"buffer":0,"byteOffset":0,"byteLength":45252,"target":34962,"byteStride":12},{"buffer":0,"byteOffset":45252,"byteLength":45252,"target":34962,"byteStride":12}],"buffers":[{"byteLength":90504,"uri":"data:application/octet-stream;base64,"}],"accessors":[{"bufferView":0,"componentType":5126,"count":3771,"max":[49.70000457763672,7.599999904632568,49.66435241699219],"min":[-49.70000076293945,0.10000000149011612,-49.735652923583984],"type":"VEC3"},{"bufferView":1,"componentType":5126,"count":3771,"max":[0,1,0],"min":[0,1,0],"type":"VEC3"}],"materials":[{"pbrMetallicRoughness":{"baseColorFactor":[0.5019607843137255,0.5019607843137255,0.5019607843137255,1],"metallicFactor":0,"roughnessFactor":1}}],"meshes":[{"primitives":[{"mode":4,"attributes":{"POSITION":0,"NORMAL":1},"material":0}]}]}