{"asset":{"version":"2.0","generator":"THREE.GLTFExporter"},"scenes":[{"nodes":[0],"name":"AuxScene"}],"scene":0,"nodes":[{"mesh":0}],"bufferViews":[{"buffer":0,"byteOffset":0,"byteLength":50436,"target":34962,"byteStride":12},{"buffer":0,"byteOffset":50436,"byteLength":50436,"target":34962,"byteStride":12}],"buffers":[{"byteLength":100872,"uri":"data:application/octet-stream;base64,"}],"accessors":[{"bufferView":0,"componentType":5126,"count":4203,"max":[49.70000457763672,3.0498499870300293,49.70000457763672],"min":[-49.70000076293945,0.04984999820590019,-49.70000076293945],"type":"VEC3"},{"bufferView":1,"componentType":5126,"count":4203,"max":[0.03028913587331772,1,0.1643984466791153],"min":[-0.031132260337471962,0.9863939881324768,-0.018170496448874474],"type":"VEC3"}],"materials":[{"pbrMetallicRoughness":{"baseColorFactor":[0.5019607843137255,0.5019607843137255,0.5019607843137255,1],"metallicFactor":0,"roughnessFactor":1}}],"meshes":[{"primitives":[{"mode":4,"attributes":{"POSITION":0,"NORMAL":1},"material":0}]}]}