{"asset":{"version":"2.0","generator":"THREE.GLTFExporter"},"scenes":[{"nodes":[0],"name":"AuxScene"}],"scene":0,"nodes":[{"mesh":0}],"bufferViews":[{"buffer":0,"byteOffset":0,"byteLength":47196,"target":34962,"byteStride":12},{"buffer":0,"byteOffset":47196,"byteLength":47196,"target":34962,"byteStride":12}],"buffers":[{"byteLength":94392,"uri":"data:application/octet-stream;base64,"}],"accessors":[{"bufferView":0,"componentType":5126,"count":3933,"max":[49.74945831298828,3.0850729942321777,49.71611785888672],"min":[-49.75054168701172,0.08507300168275833,-49.78388977050781],"type":"VEC3"},{"bufferView":1,"componentType":5126,"count":3933,"max":[0,1,0],"min":[0,1,0],"type":"VEC3"}],"materials":[{"pbrMetallicRoughness":{"baseColorFactor":[0.5019607843137255,0.5019607843137255,0.5019607843137255,1],"metallicFactor":0,"roughnessFactor":1}}],"meshes":[{"primitives":[{"mode":4,"attributes":{"POSITION":0,"NORMAL":1},"material":0}]}]}