{"asset":{"version":"2.0","generator":"THREE.GLTFExporter"},"scenes":[{"nodes":[0],"name":"AuxScene"}],"scene":0,"nodes":[{"mesh":0}],"bufferViews":[{"buffer":0,"byteOffset":0,"byteLength":20232,"target":34962,"byteStride":12},{"buffer":0,"byteOffset":20232,"byteLength":20232,"target":34962,"byteStride":12}],"buffers":[{"byteLength":40464,"uri":"data:application/octet-stream;base64,"}],"accessors":[{"bufferView":0,"componentType":5126,"count":1686,"max":[49.30000305175781,3.1118109226226807,49.40234375],"min":[-49.400001525878906,0.11181099712848663,-49.59765625],"type":"VEC3"},{"bufferView":1,"componentType":5126,"count":1686,"max":[0.8000002503395081,1,0.2576620578765869],"min":[-0.6520841121673584,0.5999996662139893,-0.5941699743270874],"type":"VEC3"}],"materials":[{"pbrMetallicRoughness":{"baseColorFactor":[0.5019607843137255,0.5019607843137255,0.5019607843137255,1],"metallicFactor":0,"roughnessFactor":1}}],"meshes":[{"primitives":[{"mode":4,"attributes":{"POSITION":0,"NORMAL":1},"material":0}]}]}