{"asset":{"version":"2.0","generator":"THREE.GLTFExporter"},"scenes":[{"nodes":[0],"name":"AuxScene"}],"scene":0,"nodes":[{"mesh":0}],"bufferViews":[{"buffer":0,"byteOffset":0,"byteLength":4968,"target":34962,"byteStride":12},{"buffer":0,"byteOffset":4968,"byteLength":4968,"target":34962,"byteStride":12}],"buffers":[{"byteLength":9936,"uri":"data:application/octet-stream;base64,"}],"accessors":[{"bufferView":0,"componentType":5126,"count":414,"max":[24.500003814697266,4.159156799316406,20.60000228881836],"min":[-24.399999618530273,0.15915699303150177,-30.399999618530273],"type":"VEC3"},{"bufferView":1,"componentType":5126,"count":414,"max":[0.7999988198280334,1,0.5546998977661133],"min":[-0.3162289559841156,0.4935005009174347,-0.7009120583534241],"type":"VEC3"}],"materials":[{"pbrMetallicRoughness":{"baseColorFactor":[0.5019607843137255,0.5019607843137255,0.5019607843137255,1],"metallicFactor":0,"roughnessFactor":1}}],"meshes":[{"primitives":[{"mode":4,"attributes":{"POSITION":0,"NORMAL":1},"material":0}]}]}