{"asset":{"version":"2.0","generator":"THREE.GLTFExporter"},"scenes":[{"nodes":[0],"name":"AuxScene"}],"scene":0,"nodes":[{"mesh":0}],"bufferViews":[{"buffer":0,"byteOffset":0,"byteLength":4644,"target":34962,"byteStride":12},{"buffer":0,"byteOffset":4644,"byteLength":4644,"target":34962,"byteStride":12}],"buffers":[{"byteLength":9288,"uri":"data:application/octet-stream;base64,"}],"accessors":[{"bufferView":0,"componentType":5126,"count":387,"max":[24.400657653808594,4.191619873046875,20.622394561767578],"min":[-24.499347686767578,0.19162000715732574,-30.677608489990234],"type":"VEC3"},{"bufferView":1,"componentType":5126,"count":387,"max":[0.28498801589012146,1,0.7124699950218201],"min":[0,0.6412240862846375,-0.07307668030261993],"type":"VEC3"}],"materials":[{"pbrMetallicRoughness":{"baseColorFactor":[0.5019607843137255,0.5019607843137255,0.5019607843137255,1],"metallicFactor":0,"roughnessFactor":1}}],"meshes":[{"primitives":[{"mode":4,"attributes":{"POSITION":0,"NORMAL":1},"material":0}]}]}