{
  "accessors": [
    {
      "bufferView": 2,
      "componentType": 5126,
      "count": 2850,
      "max": [
        0.96123009920120239,
        1.8595231771469116,
        1.7972539663314819
      ],
      "min": [
        -0.96123009920120239,
        -2.1027004718780518,
        0.17960169911384583
      ],
      "type": "VEC3"
    },
    {
      "bufferView": 2,
      "byteOffset": 34200,
      "componentType": 5126,
      "count": 2850,
      "max": [
        1,
        1,
        1
      ],
      "min": [
        -1,
        -1,
        -1
      ],
      "type": "VEC3"
    },
    {
      "bufferView": 1,
      "componentType": 5126,
      "count": 2850,
      "max": [
        0.95496618747711182,
        0.7496945858001709
      ],
      "min": [
        0,
        0
      ],
      "type": "VEC2"
    },
    {
      "bufferView": 0,
      "componentType": 5125,
      "count": 7452,
      "max": [
        2849
      ],
      "min": [
        0
      ],
      "type": "SCALAR"
    },
    {
      "bufferView": 2,
      "byteOffset": 68400,
      "componentType": 5126,
      "count": 160,
      "max": [
        0.12336724996566772,
        0.32307380437850952,
        0.32307395339012146
      ],
      "min": [
        -0.11567986011505127,
        -0.32307422161102295,
        -0.32307401299476624
      ],
      "type": "VEC3"
    },
    {
      "bufferView": 2,
      "byteOffset": 70320,
      "componentType": 5126,
      "count": 160,
      "max": [
        1,
        1,
        1
      ],
      "min": [
        -1,
        -1,
        -1
      ],
      "type": "VEC3"
    },
    {
      "bufferView": 1,
      "byteOffset": 22800,
      "componentType": 5126,
      "count": 160,
      "max": [
        0.43390536308288574,
        0.10654841363430023
      ],
      "min": [
        0.12284865975379944,
        0.0030823349952697754
      ],
      "type": "VEC2"
    },
    {
      "bufferView": 0,
      "byteOffset": 29808,
      "componentType": 5125,
      "count": 468,
      "max": [
        159
      ],
      "min": [
        0
      ],
      "type": "SCALAR"
    },
    {
      "bufferView": 2,
      "byteOffset": 72240,
      "componentType": 5126,
      "count": 160,
      "max": [
        0.11567986011505127,
        0.32307380437850952,
        0.32307395339012146
      ],
      "min": [
        -0.12336724996566772,
        -0.32307422161102295,
        -0.32307401299476624
      ],
      "type": "VEC3"
    },
    {
      "bufferView": 2,
      "byteOffset": 74160,
      "componentType": 5126,
      "count": 160,
      "max": [
        1,
        1,
        1
      ],
      "min": [
        -1,
        -1,
        -1
      ],
      "type": "VEC3"
    },
    {
      "bufferView": 1,
      "byteOffset": 24080,
      "componentType": 5126,
      "count": 160,
      "max": [
        0.43390536308288574,
        0.10654841363430023
      ],
      "min": [
        0.12284865975379944,
        0.0030823349952697754
      ],
      "type": "VEC2"
    },
    {
      "bufferView": 0,
      "byteOffset": 31680,
      "componentType": 5125,
      "count": 468,
      "max": [
        159
      ],
      "min": [
        0
      ],
      "type": "SCALAR"
    },
    {
      "bufferView": 2,
      "byteOffset": 76080,
      "componentType": 5126,
      "count": 160,
      "max": [
        0.11567980051040649,
        0.32307446002960205,
        0.32307395339012146
      ],
      "min": [
        -0.1233673095703125,
        -0.3230736255645752,
        -0.32307401299476624
      ],
      "type": "VEC3"
    },
    {
      "bufferView": 2,
      "byteOffset": 78000,
      "componentType": 5126,
      "count": 160,
      "max": [
        1,
        1,
        1
      ],
      "min": [
        -1,
        -1,
        -1
      ],
      "type": "VEC3"
    },
    {
      "bufferView": 1,
      "byteOffset": 25360,
      "componentType": 5126,
      "count": 160,
      "max": [
        0.43390536308288574,
        0.10654841363430023
      ],
      "min": [
        0.12284865975379944,
        0.0030823349952697754
      ],
      "type": "VEC2"
    },
    {
      "bufferView": 0,
      "byteOffset": 33552,
      "componentType": 5125,
      "count": 468,
      "max": [
        159
      ],
      "min": [
        0
      ],
      "type": "SCALAR"
    },
    {
      "bufferView": 2,
      "byteOffset": 79920,
      "componentType": 5126,
      "count": 160,
      "max": [
        0.1233673095703125,
        0.3230743408203125,
        0.32307389378547668
      ],
      "min": [
        -0.11567980051040649,
        -0.32307374477386475,
        -0.32307407259941101
      ],
      "type": "VEC3"
    },
    {
      "bufferView": 2,
      "byteOffset": 81840,
      "componentType": 5126,
      "count": 160,
      "max": [
        1,
        1,
        1
      ],
      "min": [
        -1,
        -1,
        -1
      ],
      "type": "VEC3"
    },
    {
      "bufferView": 1,
      "byteOffset": 26640,
      "componentType": 5126,
      "count": 160,
      "max": [
        0.43390536308288574,
        0.10654841363430023
      ],
      "min": [
        0.12284865975379944,
        0.0030823349952697754
      ],
      "type": "VEC2"
    },
    {
      "bufferView": 0,
      "byteOffset": 35424,
      "componentType": 5125,
      "count": 468,
      "max": [
        159
      ],
      "min": [
        0
      ],
      "type": "SCALAR"
    }
  ],
  "asset": {
    "extras": {
      "author": "KITSUNE GRAPHICS (https://sketchfab.com/kitsunegraphics)",
      "license": "CC-BY-4.0 (http://creativecommons.org/licenses/by/4.0/)",
      "source": "https://sketchfab.com/3d-models/vehicle-peugeot-206-33657ac0e044493daf495d45424ead7a",
      "title": "Vehicle - Peugeot 206"
    },
    "generator": "Sketchfab-9.14.0",
    "version": "2.0"
  },
  "bufferViews": [
    {
      "buffer": 0,
      "byteLength": 37296,
      "byteOffset": 0,
      "name": "floatBufferViews",
      "target": 34963
    },
    {
      "buffer": 0,
      "byteLength": 27920,
      "byteOffset": 37296,
      "byteStride": 8,
      "name": "floatBufferViews",
      "target": 34962
    },
    {
      "buffer": 0,
      "byteLength": 83760,
      "byteOffset": 65216,
      "byteStride": 12,
      "name": "floatBufferViews",
      "target": 34962
    }
  ],
  "buffers": [
    {
      "byteLength": 148976,
      "uri": "scene.bin"
    }
  ],
  "images": [
    {
      "uri": "textures/material_baseColor.png"
    }
  ],
  "materials": [
    {
      "doubleSided": true,
      "name": "material",
      "pbrMetallicRoughness": {
        "baseColorFactor": [
          1,
          1,
          1,
          1
        ],
        "baseColorTexture": {
          "index": 0,
          "texCoord": 0
        },
        "metallicFactor": 0,
        "roughnessFactor": 0.69999999999999996
      }
    }
  ],
  "meshes": [
    {
      "name": "Body.001_material_0",
      "primitives": [
        {
          "attributes": {
            "NORMAL": 1,
            "POSITION": 0,
            "TEXCOORD_0": 2
          },
          "indices": 3,
          "material": 0,
          "mode": 4
        }
      ]
    },
    {
      "name": "FLW.001_material_0",
      "primitives": [
        {
          "attributes": {
            "NORMAL": 5,
            "POSITION": 4,
            "TEXCOORD_0": 6
          },
          "indices": 7,
          "material": 0,
          "mode": 4
        }
      ]
    },
    {
      "name": "FRW.001_material_0",
      "primitives": [
        {
          "attributes": {
            "NORMAL": 9,
            "POSITION": 8,
            "TEXCOORD_0": 10
          },
          "indices": 11,
          "material": 0,
          "mode": 4
        }
      ]
    },
    {
      "name": "RRW.001_material_0",
      "primitives": [
        {
          "attributes": {
            "NORMAL": 13,
            "POSITION": 12,
            "TEXCOORD_0": 14
          },
          "indices": 15,
          "material": 0,
          "mode": 4
        }
      ]
    },
    {
      "name": "RLW.001_material_0",
      "primitives": [
        {
          "attributes": {
            "NORMAL": 17,
            "POSITION": 16,
            "TEXCOORD_0": 18
          },
          "indices": 19,
          "material": 0,
          "mode": 4
        }
      ]
    }
  ],
  "nodes": [
    {
      "children": [
        1
      ],
      "name": "RootNode (gltf orientation matrix)",
      "rotation": [
        -0.70710678118654746,
        -0,
        -0,
        0.70710678118654757
      ]
    },
    {
      "children": [
        2
      ],
      "matrix": [
        0.0035034106113016605,
        0,
        0,
        0,
        0,
        0.0035034106113016605,
        0,
        0,
        0,
        0,
        0.0035034106113016605,
        0,
        0,
        0,
        0,
        1
      ],
      "name": "RootNode (model correction matrix)"
    },
    {
      "children": [
        3
      ],
      "matrix": [
        1,
        0,
        0,
        0,
        0,
        0,
        1,
        0,
        0,
        -1,
        0,
        0,
        0,
        0,
        0,
        1
      ],
      "name": "d092d052d9a5491c9098b5791993f731.fbx"
    },
    {
      "children": [
        4,
        6,
        8,
        10,
        12
      ],
      "name": "RootNode"
    },
    {
      "children": [
        5
      ],
      "matrix": [
        100,
        0,
        0,
        0,
        0,
        -1.6292067939183141e-05,
        -99.999999999998678,
        0,
        0,
        99.999999999998678,
        -1.6292067939183141e-05,
        0,
        0,
        0,
        0,
        1
      ],
      "name": "Body.001"
    },
    {
      "mesh": 0,
      "name": "Body.001_material_0"
    },
    {
      "children": [
        7
      ],
      "matrix": [
        86.602539649920686,
        5.5511151231257827e-15,
        50.000001261839131,
        0,
        50.000001261839074,
        -4.3711390063094768e-06,
        -86.602539649920615,
        0,
        2.1855695475636594e-06,
        99.999999999999915,
        -3.7855173884437932e-06,
        0,
        77.006248474121094,
        30.778751373291016,
        124.32179260253906,
        1
      ],
      "name": "FLW.001"
    },
    {
      "mesh": 1,
      "name": "FLW.001_material_0"
    },
    {
      "children": [
        9
      ],
      "matrix": [
        86.602539649920686,
        5.5511151231257827e-15,
        50.000001261839131,
        0,
        50.000001261839074,
        -4.3711390063094768e-06,
        -86.602539649920615,
        0,
        2.1855695475636594e-06,
        99.999999999999915,
        -3.7855173884437932e-06,
        0,
        -77.006248474121094,
        30.778751373291016,
        124.32179260253906,
        1
      ],
      "name": "FRW.001"
    },
    {
      "mesh": 2,
      "name": "FRW.001_material_0"
    },
    {
      "children": [
        11
      ],
      "matrix": [
        100,
        0,
        0,
        0,
        -0,
        -1.6292067939183141e-05,
        -99.999999999998678,
        0,
        0,
        99.999999999998678,
        -1.6292067939183141e-05,
        0,
        -77.006240844726562,
        30.778751373291016,
        -121.23249816894531,
        1
      ],
      "name": "RRW.001"
    },
    {
      "mesh": 3,
      "name": "RRW.001_material_0"
    },
    {
      "children": [
        13
      ],
      "matrix": [
        100,
        0,
        0,
        0,
        0,
        -1.6292067939183141e-05,
        -99.999999999998678,
        0,
        0,
        99.999999999998678,
        -1.6292067939183141e-05,
        0,
        77.006240844726562,
        30.778757095336914,
        -121.23251342773438,
        1
      ],
      "name": "RLW.001"
    },
    {
      "mesh": 4,
      "name": "RLW.001_material_0"
    }
  ],
  "samplers": [
    {
      "magFilter": 9729,
      "minFilter": 9987,
      "wrapS": 10497,
      "wrapT": 10497
    }
  ],
  "scene": 0,
  "scenes": [
    {
      "name": "OSG_Scene",
      "nodes": [
        0
      ]
    }
  ],
  "textures": [
    {
      "sampler": 0,
      "source": 0
    }
  ]
}

